<svg width="32" height="32" viewBox="0 0 32 32" fill="none" xmlns="http://www.w3.org/2000/svg">
<g id="vuesax/outline/arrow-circle-right">
<g id="arrow-circle-right">
<path id="Vector" d="M16 30.3334C8.09335 30.3334 1.66669 23.9067 1.66669 16.0001C1.66669 8.09342 8.09335 1.66675 16 1.66675C23.9067 1.66675 30.3334 8.09342 30.3334 16.0001C30.3334 23.9067 23.9067 30.3334 16 30.3334ZM16 3.66675C9.20002 3.66675 3.66669 9.20008 3.66669 16.0001C3.66669 22.8001 9.20002 28.3334 16 28.3334C22.8 28.3334 28.3334 22.8001 28.3334 16.0001C28.3334 9.20008 22.8 3.66675 16 3.66675Z" fill="#6C7175"/>
<path id="Vector_2" d="M14.3202 21.7066C14.0669 21.7066 13.8135 21.6133 13.6135 21.4133C13.2269 21.0266 13.2269 20.3866 13.6135 20L17.6135 16L13.6135 12C13.2269 11.6133 13.2269 10.9733 13.6135 10.5866C14.0002 10.2 14.6402 10.2 15.0269 10.5866L19.7335 15.2933C20.1202 15.68 20.1202 16.32 19.7335 16.7066L15.0269 21.4133C14.8269 21.6133 14.5735 21.7066 14.3202 21.7066Z" fill="#6C7175"/>
</g>
</g>
</svg>
