<svg width="32" height="32" viewBox="0 0 32 32" fill="none" xmlns="http://www.w3.org/2000/svg">
<g id="vuesax/outline/arrow-circle-right">
<g id="arrow-circle-right">
<path id="Vector" d="M16 30.3334C23.9066 30.3334 30.3333 23.9067 30.3333 16.0001C30.3333 8.09342 23.9066 1.66675 16 1.66675C8.09331 1.66675 1.66665 8.09342 1.66665 16.0001C1.66665 23.9067 8.09331 30.3334 16 30.3334ZM16 3.66675C22.8 3.66675 28.3333 9.20008 28.3333 16.0001C28.3333 22.8001 22.8 28.3334 16 28.3334C9.19998 28.3334 3.66665 22.8001 3.66665 16.0001C3.66665 9.20008 9.19998 3.66675 16 3.66675Z" fill="#6C7175"/>
<path id="Vector_2" d="M17.6798 21.7066C17.9331 21.7066 18.1865 21.6133 18.3865 21.4133C18.7731 21.0266 18.7731 20.3866 18.3865 20L14.3865 16L18.3865 12C18.7731 11.6133 18.7731 10.9733 18.3865 10.5866C17.9998 10.2 17.3598 10.2 16.9731 10.5866L12.2665 15.2933C11.8798 15.68 11.8798 16.32 12.2665 16.7066L16.9731 21.4133C17.1731 21.6133 17.4265 21.7066 17.6798 21.7066Z" fill="#6C7175"/>
</g>
</g>
</svg>
