<svg width="24" height="25" viewBox="0 0 24 25" fill="none" xmlns="http://www.w3.org/2000/svg">
<g id="Frame 1000007060">
<g id="Group 1">
<path id="Vector" d="M11.9995 2.5C9.28368 2.5 8.94313 2.51152 7.87651 2.56017C6.81213 2.60872 6.08521 2.7778 5.44911 3.02496C4.79152 3.28051 4.23385 3.62247 3.67793 4.17839C3.12198 4.73431 2.78003 5.29204 2.5245 5.94963C2.27728 6.58569 2.10827 7.31262 2.05965 8.377C2.011 9.44362 1.99951 9.78417 1.99951 12.5C1.99951 15.2158 2.011 15.5564 2.05965 16.623C2.10827 17.6874 2.27728 18.4143 2.5245 19.0504C2.78006 19.708 3.12201 20.2656 3.67793 20.8216C4.23388 21.3775 4.79152 21.7195 5.44911 21.975C6.08521 22.2222 6.81213 22.3912 7.87651 22.4398C8.94313 22.4885 9.28368 22.5 11.9995 22.5C14.7153 22.5 15.0559 22.4885 16.1225 22.4398C17.1869 22.3913 17.9138 22.2222 18.5499 21.975C19.2075 21.7195 19.7651 21.3775 20.3211 20.8216C20.877 20.2656 21.219 19.708 21.4746 19.0504C21.7217 18.4143 21.8908 17.6874 21.9393 16.623C21.988 15.5564 21.9995 15.2158 21.9995 12.5C21.9995 9.78417 21.988 9.44362 21.9393 8.377C21.8908 7.31262 21.7217 6.58569 21.4746 5.94963C21.219 5.29204 20.877 4.73431 20.3211 4.17839C19.7651 3.62247 19.2075 3.28051 18.5499 3.02496C17.9138 2.7778 17.1869 2.60872 16.1225 2.56017C15.0559 2.51152 14.7153 2.5 11.9995 2.5ZM11.9995 4.30179C14.6696 4.30179 14.9859 4.312 16.0404 4.36011C17.0154 4.40456 17.5449 4.56747 17.8972 4.70442C18.364 4.88584 18.6971 5.10252 19.047 5.45245C19.397 5.80238 19.6137 6.13552 19.7951 6.60228C19.932 6.95465 20.095 7.48416 20.1394 8.45914C20.1875 9.51361 20.1977 9.8299 20.1977 12.5C20.1977 15.1701 20.1875 15.4864 20.1394 16.5409C20.095 17.5159 19.932 18.0454 19.7951 18.3977C19.6137 18.8645 19.397 19.1976 19.047 19.5475C18.6971 19.8975 18.364 20.1142 17.8972 20.2956C17.5449 20.4325 17.0153 20.5954 16.0404 20.6399C14.9861 20.688 14.6698 20.6982 11.9995 20.6982C9.32921 20.6982 9.013 20.688 7.95865 20.6399C6.98364 20.5954 6.45416 20.4325 6.10182 20.2956C5.635 20.1142 5.30189 19.8975 4.95199 19.5475C4.60206 19.1976 4.38535 18.8645 4.20393 18.3977C4.06698 18.0454 3.9041 17.5158 3.85962 16.5409C3.81151 15.4864 3.8013 15.1701 3.8013 12.5C3.8013 9.8299 3.81151 9.51361 3.85962 8.45914C3.9041 7.48413 4.06698 6.95465 4.20393 6.60231C4.38535 6.13549 4.60206 5.80238 4.95196 5.45248C5.30189 5.10252 5.63503 4.88584 6.10179 4.70442C6.45416 4.56747 6.98367 4.40456 7.95865 4.36011C9.01312 4.312 9.32944 4.30179 11.9995 4.30179Z" fill="#6C7175"/>
<path id="Vector_2" d="M11.9995 15.8333C10.1585 15.8333 8.66617 14.3409 8.66617 12.5C8.66617 10.659 10.1585 9.16662 11.9995 9.16662C13.8405 9.16662 15.3329 10.659 15.3329 12.5C15.3329 14.3409 13.8405 15.8333 11.9995 15.8333ZM11.9995 7.36483C9.16344 7.36483 6.86438 9.66388 6.86438 12.5C6.86438 15.336 9.16344 17.6351 11.9995 17.6351C14.8356 17.6351 17.1346 15.336 17.1346 12.5C17.1346 9.66388 14.8356 7.36483 11.9995 7.36483ZM18.5376 7.16194C18.5376 7.8247 18.0003 8.36193 17.3375 8.36193C16.6748 8.36193 16.1375 7.8247 16.1375 7.16194C16.1375 6.4992 16.6748 5.96191 17.3375 5.96191C18.0003 5.96191 18.5376 6.4992 18.5376 7.16194Z" fill="#6C7175"/>
</g>
</g>
</svg>
