<svg width="24" height="25" viewBox="0 0 24 25" fill="none" xmlns="http://www.w3.org/2000/svg">
<g id="Frame 1000007059">
<path id="Vector" d="M19.041 19.5413H16.0776V14.9004C16.0776 13.7937 16.0578 12.3691 14.5362 12.3691C12.9928 12.3691 12.7566 13.5749 12.7566 14.8199V19.541H9.79314V9.99741H12.6381V11.3017H12.6779C12.9626 10.8149 13.374 10.4144 13.8683 10.1429C14.3626 9.87143 14.9213 9.73911 15.4849 9.76003C18.4885 9.76003 19.0423 11.7357 19.0423 14.3059L19.041 19.5413ZM6.44936 8.69287C6.10922 8.69293 5.77671 8.59213 5.49387 8.40321C5.21102 8.21429 4.99055 7.94574 4.86033 7.63153C4.73011 7.31731 4.69599 6.97153 4.76229 6.63792C4.82859 6.30431 4.99232 5.99785 5.23279 5.7573C5.47325 5.51675 5.77965 5.3529 6.11324 5.28649C6.44682 5.22007 6.79261 5.25406 7.10688 5.38417C7.42114 5.51428 7.68977 5.73465 7.87879 6.01743C8.06781 6.30021 8.16873 6.63268 8.16879 6.97281C8.16883 7.19865 8.12439 7.42229 8.038 7.63096C7.95161 7.83962 7.82497 8.02923 7.66531 8.18895C7.50564 8.34867 7.31608 8.47538 7.10745 8.56184C6.89882 8.6483 6.6752 8.69282 6.44936 8.69287ZM7.93109 19.5413H4.96453V9.99741H7.93109V19.5413ZM20.5185 2.50136H3.47538C3.08855 2.497 2.71582 2.64639 2.43908 2.9167C2.16233 3.18702 2.00423 3.55614 1.99951 3.94297V21.0567C2.00407 21.4438 2.16207 21.8131 2.4388 22.0837C2.71553 22.3543 3.08836 22.504 3.47538 22.4999H20.5185C20.9062 22.5047 21.2801 22.3555 21.5579 22.0849C21.8358 21.8143 21.9948 21.4445 22.0002 21.0567V3.94173C21.9947 3.55414 21.8355 3.1846 21.5577 2.91429C21.2798 2.64398 20.9061 2.49502 20.5185 2.50013" fill="#6C7175"/>
</g>
</svg>
