<svg width="24" height="25" viewBox="0 0 24 25" fill="none" xmlns="http://www.w3.org/2000/svg">
<g id="Frame 1000007061" clip-path="url(#clip0_184_32728)">
<g id="Group 2">
<path id="Vector" d="M23.2347 6.99842C22.9735 6.015 22.204 5.24052 21.2269 4.97768C19.4559 4.5 12.3543 4.5 12.3543 4.5C12.3543 4.5 5.25284 4.5 3.48187 4.97768C2.50474 5.24052 1.73519 6.015 1.47409 6.99842C0.999512 8.78101 0.999512 12.5 0.999512 12.5C0.999512 12.5 0.999512 16.2191 1.47409 18.0017C1.73519 18.9851 2.50474 19.7595 3.48187 20.0224C5.25284 20.5 12.3543 20.5 12.3543 20.5C12.3543 20.5 19.4559 20.5 21.2269 20.0224C22.204 19.7595 22.9735 18.985 23.2347 18.0018C23.7093 16.219 23.7093 12.5 23.7093 12.5C23.7093 12.5 23.7093 8.78101 23.2347 6.99842Z" fill="#6C7175"/>
<path id="Vector_2" d="M10.0317 15.8767L15.9673 12.5003L10.0317 9.12354V15.8767Z" fill="white"/>
</g>
</g>
<defs>
<clipPath id="clip0_184_32728">
<rect width="24" height="24" fill="white" transform="translate(-0.000488281 0.5)"/>
</clipPath>
</defs>
</svg>
