<svg width="21" height="20" viewBox="0 0 21 20" fill="none" xmlns="http://www.w3.org/2000/svg">
<g id="vuesax/outline/search-normal">
<g id="search-normal">
<path id="Vector" d="M9.66663 17.2916C5.18329 17.2916 1.54163 13.65 1.54163 9.16663C1.54163 4.68329 5.18329 1.04163 9.66663 1.04163C14.15 1.04163 17.7916 4.68329 17.7916 9.16663C17.7916 13.65 14.15 17.2916 9.66663 17.2916ZM9.66663 2.29163C5.87496 2.29163 2.79163 5.37496 2.79163 9.16663C2.79163 12.9583 5.87496 16.0416 9.66663 16.0416C13.4583 16.0416 16.5416 12.9583 16.5416 9.16663C16.5416 5.37496 13.4583 2.29163 9.66663 2.29163Z" fill="#6C7175"/>
<path id="Vector_2" d="M17.3 18.9917C17.2333 18.9917 17.1666 18.9833 17.1083 18.975C16.7166 18.925 16.0083 18.6583 15.6083 17.4667C15.4 16.8417 15.475 16.2167 15.8166 15.7417C16.1583 15.2667 16.7333 15 17.3916 15C18.2416 15 18.9083 15.325 19.2083 15.9C19.5083 16.475 19.425 17.2083 18.95 17.9167C18.3583 18.8083 17.7166 18.9917 17.3 18.9917ZM16.8 17.075C16.9416 17.5083 17.1416 17.725 17.275 17.7417C17.4083 17.7583 17.6583 17.6 17.9166 17.225C18.1583 16.8667 18.175 16.6083 18.1166 16.4917C18.0583 16.375 17.825 16.25 17.3916 16.25C17.1333 16.25 16.9416 16.3333 16.8333 16.475C16.7333 16.6167 16.7166 16.8333 16.8 17.075Z" fill="#6C7175"/>
</g>
</g>
</svg>
